<?xml version="1.0" standalone="no"?><svg xmlns="http://www.w3.org/2000/svg" viewBox="0 0 1440 320"><path fill="#e3f2fd" fill-opacity="1" d="M0,96L62.6,224L125.2,224L187.8,128L250.4,64L313,128L375.7,288L438.3,224L500.9,192L563.5,288L626.1,320L688.7,128L751.3,160L813.9,192L876.5,32L939.1,224L1001.7,128L1064.3,288L1127,192L1189.6,64L1252.2,64L1314.8,288L1377.4,96L1440,64L1440,0L1377.4,0L1314.8,0L1252.2,0L1189.6,0L1127,0L1064.3,0L1001.7,0L939.1,0L876.5,0L813.9,0L751.3,0L688.7,0L626.1,0L563.5,0L500.9,0L438.3,0L375.7,0L313,0L250.4,0L187.8,0L125.2,0L62.6,0L0,0Z"></path></svg>