<?xml version="1.0" standalone="no"?><svg xmlns="http://www.w3.org/2000/svg" viewBox="0 0 1440 320"><path fill="#e3f2fd" fill-opacity="1" d="M0,224L0,288L36.9,288L36.9,32L73.8,32L73.8,96L110.8,96L110.8,32L147.7,32L147.7,160L184.6,160L184.6,288L221.5,288L221.5,160L258.5,160L258.5,32L295.4,32L295.4,256L332.3,256L332.3,32L369.2,32L369.2,160L406.2,160L406.2,256L443.1,256L443.1,160L480,160L480,0L516.9,0L516.9,192L553.8,192L553.8,32L590.8,32L590.8,224L627.7,224L627.7,128L664.6,128L664.6,160L701.5,160L701.5,224L738.5,224L738.5,256L775.4,256L775.4,160L812.3,160L812.3,160L849.2,160L849.2,288L886.2,288L886.2,256L923.1,256L923.1,128L960,128L960,192L996.9,192L996.9,96L1033.8,96L1033.8,128L1070.8,128L1070.8,256L1107.7,256L1107.7,192L1144.6,192L1144.6,32L1181.5,32L1181.5,288L1218.5,288L1218.5,288L1255.4,288L1255.4,96L1292.3,96L1292.3,288L1329.2,288L1329.2,192L1366.2,192L1366.2,128L1403.1,128L1403.1,96L1440,96L1440,320L1403.1,320L1403.1,320L1366.2,320L1366.2,320L1329.2,320L1329.2,320L1292.3,320L1292.3,320L1255.4,320L1255.4,320L1218.5,320L1218.5,320L1181.5,320L1181.5,320L1144.6,320L1144.6,320L1107.7,320L1107.7,320L1070.8,320L1070.8,320L1033.8,320L1033.8,320L996.9,320L996.9,320L960,320L960,320L923.1,320L923.1,320L886.2,320L886.2,320L849.2,320L849.2,320L812.3,320L812.3,320L775.4,320L775.4,320L738.5,320L738.5,320L701.5,320L701.5,320L664.6,320L664.6,320L627.7,320L627.7,320L590.8,320L590.8,320L553.8,320L553.8,320L516.9,320L516.9,320L480,320L480,320L443.1,320L443.1,320L406.2,320L406.2,320L369.2,320L369.2,320L332.3,320L332.3,320L295.4,320L295.4,320L258.5,320L258.5,320L221.5,320L221.5,320L184.6,320L184.6,320L147.7,320L147.7,320L110.8,320L110.8,320L73.8,320L73.8,320L36.9,320L36.9,320L0,320L0,320Z"></path></svg>