<?xml version="1.0" standalone="no"?><svg xmlns="http://www.w3.org/2000/svg" viewBox="0 0 1440 320"><path fill="#FFC107" fill-opacity="0.7" d="M0,192L10.9,208C21.8,224,44,256,65,256C87.3,256,109,224,131,197.3C152.7,171,175,149,196,160C218.2,171,240,213,262,213.3C283.6,213,305,171,327,149.3C349.1,128,371,128,393,133.3C414.5,139,436,149,458,154.7C480,160,502,160,524,138.7C545.5,117,567,75,589,96C610.9,117,633,203,655,224C676.4,245,698,203,720,197.3C741.8,192,764,224,785,202.7C807.3,181,829,107,851,90.7C872.7,75,895,117,916,117.3C938.2,117,960,75,982,53.3C1003.6,32,1025,32,1047,42.7C1069.1,53,1091,75,1113,80C1134.5,85,1156,75,1178,96C1200,117,1222,171,1244,170.7C1265.5,171,1287,117,1309,128C1330.9,139,1353,213,1375,250.7C1396.4,288,1418,288,1429,288L1440,288L1440,0L1429.1,0C1418.2,0,1396,0,1375,0C1352.7,0,1331,0,1309,0C1287.3,0,1265,0,1244,0C1221.8,0,1200,0,1178,0C1156.4,0,1135,0,1113,0C1090.9,0,1069,0,1047,0C1025.5,0,1004,0,982,0C960,0,938,0,916,0C894.5,0,873,0,851,0C829.1,0,807,0,785,0C763.6,0,742,0,720,0C698.2,0,676,0,655,0C632.7,0,611,0,589,0C567.3,0,545,0,524,0C501.8,0,480,0,458,0C436.4,0,415,0,393,0C370.9,0,349,0,327,0C305.5,0,284,0,262,0C240,0,218,0,196,0C174.5,0,153,0,131,0C109.1,0,87,0,65,0C43.6,0,22,0,11,0L0,0Z"></path></svg>