<?xml version="1.0" standalone="no"?><svg xmlns="http://www.w3.org/2000/svg" viewBox="0 0 1440 320"><path fill="#009688" fill-opacity="1" d="M0,96L17.1,106.7C34.3,117,69,139,103,165.3C137.1,192,171,224,206,197.3C240,171,274,85,309,96C342.9,107,377,213,411,213.3C445.7,213,480,107,514,69.3C548.6,32,583,64,617,69.3C651.4,75,686,53,720,37.3C754.3,21,789,11,823,10.7C857.1,11,891,21,926,58.7C960,96,994,160,1029,202.7C1062.9,245,1097,267,1131,245.3C1165.7,224,1200,160,1234,133.3C1268.6,107,1303,117,1337,106.7C1371.4,96,1406,64,1423,48L1440,32L1440,0L1422.9,0C1405.7,0,1371,0,1337,0C1302.9,0,1269,0,1234,0C1200,0,1166,0,1131,0C1097.1,0,1063,0,1029,0C994.3,0,960,0,926,0C891.4,0,857,0,823,0C788.6,0,754,0,720,0C685.7,0,651,0,617,0C582.9,0,549,0,514,0C480,0,446,0,411,0C377.1,0,343,0,309,0C274.3,0,240,0,206,0C171.4,0,137,0,103,0C68.6,0,34,0,17,0L0,0Z"></path></svg>