<?xml version="1.0" standalone="no"?><svg xmlns="http://www.w3.org/2000/svg" viewBox="0 0 1440 320"><path fill="#009688" fill-opacity="1" d="M0,160L30,181.3C60,203,120,245,180,261.3C240,277,300,267,360,224C420,181,480,107,540,106.7C600,107,660,181,720,181.3C780,181,840,107,900,106.7C960,107,1020,181,1080,181.3C1140,181,1200,107,1260,96C1320,85,1380,139,1410,165.3L1440,192L1440,0L1410,0C1380,0,1320,0,1260,0C1200,0,1140,0,1080,0C1020,0,960,0,900,0C840,0,780,0,720,0C660,0,600,0,540,0C480,0,420,0,360,0C300,0,240,0,180,0C120,0,60,0,30,0L0,0Z"></path></svg>